<?xml version="1.0" encoding="UTF-8"?>
<svg version="1.1" xmlns="http://www.w3.org/2000/svg" width="500" height="500">
<path d="M0 0 C3.38939556 2.13679285 4.72582557 3.1774767 6 7 C6.03954234 9.33299825 6.04401732 11.66708189 6 14 C6.71285156 13.93039063 7.42570312 13.86078125 8.16015625 13.7890625 C13.15147579 13.50691523 17.06160722 13.35581465 21.1875 16.4375 C23.78516288 19.0538064 24.45335836 20.95662807 24.5625 24.625 C24.3853829 27.88166919 23.58823939 30.15788741 22 33 C21.34 33 20.68 33 20 33 C20 33.66 20 34.32 20 35 C17.23547967 36.38226016 14.9538637 36.09525387 11.875 36.0625 C10.77929688 36.05347656 9.68359375 36.04445313 8.5546875 36.03515625 C7.71164063 36.02355469 6.86859375 36.01195312 6 36 C6.04125 37.2375 6.0825 38.475 6.125 39.75 C6.062249 45.67996988 6.062249 45.67996988 4 48 C0.80349567 49.93137732 -2.24329098 51.30017552 -6.01171875 50.65625 C-8.62370542 49.6486912 -10.61717469 48.44940362 -12.4375 46.3125 C-13.28410369 42.83201818 -13.11925776 39.57773294 -13 36 C-13.74765625 36.02320313 -14.4953125 36.04640625 -15.265625 36.0703125 C-16.25046875 36.08835937 -17.2353125 36.10640625 -18.25 36.125 C-19.22453125 36.14820313 -20.1990625 36.17140625 -21.203125 36.1953125 C-24.06365756 35.99555464 -25.6090534 35.5370371 -28 34 C-30.93910735 30.43108393 -31.47509714 27.41143118 -31.2890625 22.9296875 C-30.85655103 20.04238119 -29.84410875 18.23927491 -28 16 C-24.7161309 13.88894129 -22.10580266 13.78319517 -18.25 13.875 C-17.26515625 13.89304688 -16.2803125 13.91109375 -15.265625 13.9296875 C-14.14414063 13.96449219 -14.14414063 13.96449219 -13 14 C-13.04640625 13.39671875 -13.0928125 12.7934375 -13.140625 12.171875 C-13.43813387 5.5841785 -13.43813387 5.5841785 -11.125 2.5 C-7.27243733 -0.219456 -4.73826123 -0.40154756 0 0 Z M-5 9 C-5.09796875 9.61488281 -5.1959375 10.22976562 -5.296875 10.86328125 C-6.49845357 17.35802056 -6.49845357 17.35802056 -8.5625 20 C-12.26707361 21.51982507 -16.02789145 21.75386507 -20 22 C-20.38218767 23.65614657 -20.71395102 25.32457024 -21 27 C-18.87962437 29.12037563 -14.54275813 28.82345835 -11.6640625 29.20703125 C-8.44185236 30.16613486 -7.60479023 31.09033116 -6 34 C-5.3125 37.75 -5.3125 37.75 -5 41 C-4.01 41 -3.02 41 -2 41 C-1.90203125 40.38511719 -1.8040625 39.77023437 -1.703125 39.13671875 C-0.50154643 32.64197944 -0.50154643 32.64197944 1.5625 30 C5.26707361 28.48017493 9.02789145 28.24613493 13 28 C13.38218767 26.34385343 13.71395102 24.67542976 14 23 C12.46370779 21.46370779 10.88319298 21.84888974 8.75 21.75 C5.20366919 21.37788898 4.06451525 21.04667061 1.0625 18.875 C-1.35387012 15.5067265 -2.13262009 13.02148869 -3 9 C-3.66 9 -4.32 9 -5 9 Z " fill="#0B1C39" transform="translate(87,225)"/>
<path d="M0 0 C6 0 6 0 7.55151367 1.42114258 C7.91994385 2.07236084 8.28837402 2.7235791 8.66796875 3.39453125 C9.08626953 4.10287109 9.50457031 4.81121094 9.93554688 5.54101562 C10.34869141 6.29060547 10.76183594 7.04019531 11.1875 7.8125 C12.03172458 9.27932419 12.87927127 10.74424242 13.73046875 12.20703125 C14.09551514 12.8616333 14.46056152 13.51623535 14.83666992 14.19067383 C16.04198378 16.06529733 17.37208904 17.48621546 19 19 C19.29656494 18.42443359 19.59312988 17.84886719 19.89868164 17.25585938 C21.25889796 14.65494255 22.65971608 12.07818849 24.0625 9.5 C24.52849609 8.59378906 24.99449219 7.68757812 25.47460938 6.75390625 C25.94833984 5.89667969 26.42207031 5.03945312 26.91015625 4.15625 C27.33433838 3.36025391 27.75852051 2.56425781 28.19555664 1.74414062 C30 0 30 0 37 0 C37 10.89 37 21.78 37 33 C35 34 35 34 30 33 C29.67 27.39 29.34 21.78 29 16 C26.20230379 20.59784606 26.20230379 20.59784606 23.43652344 25.21484375 C22.359375 26.9375 22.359375 26.9375 20 30 C18.68 30 17.36 30 16 30 C12.04 23.07 12.04 23.07 8 16 C7.67 21.61 7.34 27.22 7 33 C4 34 4 34 0 33 C0 22.11 0 11.22 0 0 Z " fill="#091E3D" transform="translate(129,231)"/>
<path d="M0 0 C1.99954746 -0.04254356 4.00041636 -0.04080783 6 0 C7 1 7 1 7.11352539 4.23461914 C7.11336631 5.66814126 7.10767407 7.10166912 7.09765625 8.53515625 C7.0962413 9.28840683 7.09482635 10.04165741 7.09336853 10.81773376 C7.08775376 13.2326956 7.07519883 15.64756601 7.0625 18.0625 C7.0574869 19.69596221 7.05292366 21.32942586 7.04882812 22.96289062 C7.03777954 26.97529585 7.02050506 30.98763241 7 35 C4 35 1 35 -2 35 C-2.64453125 35.10699219 -3.2890625 35.21398437 -3.953125 35.32421875 C-9.23229829 36.15919004 -12.41516281 36.16572092 -17 33 C-19.94265179 29.75293595 -20.918002 27.08647349 -21.25 22.6875 C-20.92366896 17.87411721 -19.59267764 14.77644814 -16.375 11.1875 C-12.77931138 9.38965569 -9.01094036 8.85170819 -5 9 C-3.68 9.66 -2.36 10.32 -1 11 C-0.67 7.37 -0.34 3.74 0 0 Z M-11.8125 17.0625 C-14.350379 19.87431022 -14.350379 19.87431022 -14.0625 23.625 C-13.24932579 26.96529109 -13.24932579 26.96529109 -11.3125 29 C-8.10029355 30.38906225 -6.3063364 30.05521374 -3 29 C-0.90235835 27.48105194 -0.90235835 27.48105194 0 25 C-0.06715253 21.17230571 -0.15226202 18.90620267 -2.8125 16.0625 C-6.59264069 14.22643166 -8.49160854 14.6271796 -11.8125 17.0625 Z " fill="#0B1F3D" transform="translate(219,229)"/>
<path d="M0 0 C0.78375 0.70125 1.5675 1.4025 2.375 2.125 C2.375 3.115 2.375 4.105 2.375 5.125 C0.0625 6.25 0.0625 6.25 -2.625 7.125 C-3.615 6.465 -4.605 5.805 -5.625 5.125 C-10.03534167 4.41472026 -13.61865848 4.62182924 -17.625 6.625 C-20.27386036 9.93607545 -20.79929267 12.9895102 -20.625 17.125 C-19.80656968 20.5065339 -19.80656968 20.5065339 -18.625 23.125 C-11.87499296 25.12644577 -11.87499296 25.12644577 -5.25 23.625 C-4.38375 23.13 -3.5175 22.635 -2.625 22.125 C-0.25 22.9375 -0.25 22.9375 1.375 24.125 C1.375 25.445 1.375 26.765 1.375 28.125 C-2.31225497 31.6805673 -5.45639218 32.04836998 -10.4375 32.375 C-15.49923249 32.27169934 -19.60845721 31.04616576 -23.359375 27.47265625 C-27.43617451 22.88140347 -28.95227678 19.58658461 -28.8359375 13.24609375 C-28.32840575 8.14258007 -26.38290105 4.88290105 -22.8125 1.3125 C-15.85453047 -3.46257713 -7.47780927 -4.60718107 0 0 Z " fill="#091E3D" transform="translate(270.625,232.875)"/>
<path d="M0 0 C3.40781631 2.0194467 5.4539051 3.52025898 6.84765625 7.296875 C7.38941933 9.55003536 7.84234214 11.68768471 8 14 C6.48578999 15.51421001 5.07527232 15.21309856 2.96484375 15.31640625 C2.15595703 15.35830078 1.34707031 15.40019531 0.51367188 15.44335938 C-0.33646484 15.48267578 -1.18660156 15.52199219 -2.0625 15.5625 C-2.91650391 15.60568359 -3.77050781 15.64886719 -4.65039062 15.69335938 C-6.76672037 15.79976702 -8.88333813 15.90041731 -11 16 C-7.77178484 18.77105848 -7.77178484 18.77105848 -3.4375 18.75 C-0.04137015 18.07308531 -0.04137015 18.07308531 3 17 C3.99 18.65 4.98 20.3 6 22 C1.36507444 25.67597544 -2.06597998 26.48639508 -8 26 C-12.4068326 24.58496201 -15.29606284 22.98991164 -18 19.1875 C-19.59337665 14.10861193 -19.79129921 10.06920098 -17.4375 5.25 C-13.43917232 -0.97897366 -6.69257648 -2.17203293 0 0 Z M-10.4375 6.875 C-12.09873174 8.69467209 -12.09873174 8.69467209 -12 10 C-7.71 10 -3.42 10 1 10 C0.34 8.68 -0.32 7.36 -1 6 C-6.02728802 4.50263408 -6.02728802 4.50263408 -10.4375 6.875 Z " fill="#0A1E3C" transform="translate(189,239)"/>
<path d="M0 0 C3.69223967 2.82809847 5.76535009 5.51036395 7 10 C7 11.65 7 13.3 7 15 C-2.405 15.495 -2.405 15.495 -12 16 C-8.35512081 19.41546218 -8.35512081 19.41546218 -4.4375 18.75 C-1.04137015 18.07308531 -1.04137015 18.07308531 2 17 C2.99 17.99 3.98 18.98 5 20 C4.0114653 22.69600373 3.34022364 23.80558649 0.8125 25.25 C-3.9105113 26.50946968 -7.58762392 26.52617932 -12.1875 24.8125 C-15.82422058 22.46883563 -18.28746181 20.36211291 -19.5703125 16.109375 C-20.4440057 11.23900012 -19.85455369 8.18667875 -17 4 C-11.57012431 -1.02263501 -7.04022124 -1.80645396 0 0 Z M-11.4375 6.875 C-13.09873174 8.69467209 -13.09873174 8.69467209 -13 10 C-8.71 10 -4.42 10 0 10 C-0.66 8.68 -1.32 7.36 -2 6 C-7.02728802 4.50263408 -7.02728802 4.50263408 -11.4375 6.875 Z " fill="#0A1E3C" transform="translate(386,239)"/>
<path d="M0 0 C3.26872789 3.82680338 4.44186599 6.97645519 4.5625 12 C3.12137307 17.1711025 1.2692451 20.33966581 -3.4375 23 C-7.92014607 24.22177384 -11.93334513 24.50107243 -16.3125 22.8125 C-20.48219381 20.39407759 -21.93186257 18.51691229 -23.4375 14 C-23.91343705 9.05025473 -23.42084007 5.64983563 -20.7578125 1.515625 C-15.14967366 -4.92212018 -6.62667626 -3.85552073 0 0 Z M-14.1875 4.5625 C-16.74223311 6.89115639 -16.74223311 6.89115639 -17.0625 10.5 C-16.72514001 14.08683893 -16.72514001 14.08683893 -14.3125 16.5 C-11.51600006 18.23016087 -11.51600006 18.23016087 -8.3125 18.0625 C-5.31937653 17.21358174 -5.31937653 17.21358174 -3.5 14.8125 C-2.18215418 11.32408458 -2.28539651 9.53311738 -3.4375 6 C-5.1484211 4.02901574 -5.1484211 4.02901574 -7.4375 3 C-11.3850115 2.67066039 -11.3850115 2.67066039 -14.1875 4.5625 Z " fill="#0A1E3C" transform="translate(298.4375,241)"/>
<path d="M0 0 C2.99452434 2.24589325 3.81623122 3.44869367 5 7 C5.08021999 8.40824893 5.10765977 9.81997231 5.09765625 11.23046875 C5.09443359 12.03291016 5.09121094 12.83535156 5.08789062 13.66210938 C5.07951172 14.49548828 5.07113281 15.32886719 5.0625 16.1875 C5.05798828 17.03248047 5.05347656 17.87746094 5.04882812 18.74804688 C5.03705403 20.83206155 5.0191189 22.91603977 5 25 C3.0085944 25.38133299 1.00720923 25.71325582 -1 26 C-3.27102528 23.72897472 -2.35559624 17.41141456 -2.4296875 14.16992188 C-2.5141348 12.10624096 -2.74813769 10.04999406 -3 8 C-5.75698184 5.71861055 -5.75698184 5.71861055 -8.5625 6.1875 C-11.33255117 6.83372442 -11.33255117 6.83372442 -13 10 C-13.29991069 12.58885171 -13.50865225 15.09149082 -13.625 17.6875 C-13.66367187 18.38939453 -13.70234375 19.09128906 -13.7421875 19.81445312 C-13.8362334 21.54254655 -13.9191968 23.27123675 -14 25 C-16.31 25 -18.62 25 -21 25 C-21 16.75 -21 8.5 -21 0 C-18.03 0 -15.06 0 -12 0 C-7.83523216 -1.38825595 -4.24785872 -1.00627395 0 0 Z " fill="#0A1D3C" transform="translate(327,239)"/>
<path d="M0 0 C2.99452434 2.24589325 3.81623122 3.44869367 5 7 C5.08021999 8.40824893 5.10765977 9.81997231 5.09765625 11.23046875 C5.09443359 12.03291016 5.09121094 12.83535156 5.08789062 13.66210938 C5.07951172 14.49548828 5.07113281 15.32886719 5.0625 16.1875 C5.05798828 17.03248047 5.05347656 17.87746094 5.04882812 18.74804688 C5.03705403 20.83206155 5.0191189 22.91603977 5 25 C2.69 25 0.38 25 -2 25 C-2.03738281 23.79601562 -2.07476562 22.59203125 -2.11328125 21.3515625 C-2.17892928 19.77600989 -2.24537701 18.20049046 -2.3125 16.625 C-2.33505859 15.8309375 -2.35761719 15.036875 -2.38085938 14.21875 C-2.47785075 12.13784419 -2.72994825 10.06558668 -3 8 C-5.75698184 5.71861055 -5.75698184 5.71861055 -8.5625 6.1875 C-11.33255117 6.83372442 -11.33255117 6.83372442 -13 10 C-13.29991069 12.58885171 -13.50865225 15.09149082 -13.625 17.6875 C-13.66367187 18.38939453 -13.70234375 19.09128906 -13.7421875 19.81445312 C-13.8362334 21.54254655 -13.9191968 23.27123675 -14 25 C-16.31 25 -18.62 25 -21 25 C-21 16.75 -21 8.5 -21 0 C-18.03 0 -15.06 0 -12 0 C-7.83523216 -1.38825595 -4.24785872 -1.00627395 0 0 Z " fill="#091D3D" transform="translate(358,239)"/>
<path d="M0 0 C3.0625 2.5625 3.0625 2.5625 5 5 C2.94766315 7.2477975 1.99332739 8.0022242 -1 9 C-1.598125 8.505 -2.19625 8.01 -2.8125 7.5 C-4.98765608 5.69655556 -4.98765608 5.69655556 -8.125 6.0625 C-11.0244317 6.730875 -11.0244317 6.730875 -12.4375 8.6875 C-13.19224007 11.7903203 -12.86477202 13.94003747 -12 17 C-9.18138229 19.32821558 -9.18138229 19.32821558 -6 18.75 C-2.84584582 18.14014017 -2.84584582 18.14014017 0 16 C1.65 16.99 3.3 17.98 5 19 C3.96008872 22.01574271 3.03085171 22.97991051 0.3125 24.75 C-4.64179045 26.61954357 -8.2206278 26.66290337 -13.1875 24.8125 C-16.46883541 22.69786162 -18.12726587 21.45735531 -20 18 C-20.72471973 13.56363159 -21.01165843 9.17829432 -19.08203125 5.0234375 C-14.27675796 -1.29028727 -7.21965938 -2.12342923 0 0 Z " fill="#0B1E3B" transform="translate(415,239)"/>
<path d="M0 0 C1.98 0 3.96 0 6 0 C6 1.98 6 3.96 6 6 C8.31 6 10.62 6 13 6 C13 7.65 13 9.3 13 11 C11.02 11.33 9.04 11.66 7 12 C6.97303635 13.79158489 6.95362083 15.58328473 6.9375 17.375 C6.92589844 18.37273437 6.91429687 19.37046875 6.90234375 20.3984375 C6.81993398 22.98432453 6.81993398 22.98432453 8 25 C9.65 25 11.3 25 13 25 C13.66 26.65 14.32 28.3 15 30 C11.76372698 32.15751534 11.16421162 32.2536352 7.5 31.875 C6.7265625 31.81054688 5.953125 31.74609375 5.15625 31.6796875 C3 31 3 31 1.23046875 29.4609375 C-0.53038854 25.93922292 -0.31976384 22.58904278 -0.1875 18.75 C-0.16719727 17.63238281 -0.16719727 17.63238281 -0.14648438 16.4921875 C-0.11127204 14.66114584 -0.05746851 12.83047831 0 11 C-1.32 11 -2.64 11 -4 11 C-4 9.35 -4 7.7 -4 6 C-2.68 6 -1.36 6 0 6 C0 4.02 0 2.04 0 0 Z " fill="#0A1E3D" transform="translate(424,233)"/>
<path d="M0 0 C0 11.22 0 22.44 0 34 C-5 34 -5 34 -7.3125 32 C-8.1478125 31.01 -8.1478125 31.01 -9 30 C-9.33 30.99 -9.66 31.98 -10 33 C-10.99 32.67 -11.98 32.34 -13 32 C-12.505 30.515 -12.505 30.515 -12 29 C-10.35 28.67 -8.7 28.34 -7 28 C-6.26478051 24.07882939 -5.90592366 20.83049565 -6.5 16.875 C-6.94235302 13.44676408 -6.92143864 11.27622627 -6 8 C-5.01 8 -4.02 8 -3 8 C-3.33 6.02 -3.66 4.04 -4 2 C-1 0 -1 0 0 0 Z " fill="#051C3D" transform="translate(226,230)"/>
<path d="M0 0 C2.31 0 4.62 0 7 0 C7 8.25 7 16.5 7 25 C4.69 25 2.38 25 0 25 C0 16.75 0 8.5 0 0 Z " fill="#051C42" transform="translate(231,239)"/>
<path d="M0 0 C2.4375 1.5 2.4375 1.5 4 3 C3.67 3.99 3.34 4.98 3 6 C2.67 5.01 2.34 4.02 2 3 C-3.83767475 2.69034518 -3.83767475 2.69034518 -9 5 C-9.73013683 7.08190522 -9.73013683 7.08190522 -9.9375 9.4375 C-10.72949564 13.75873935 -10.72949564 13.75873935 -13.3125 16.0625 C-16.10367978 17.03616736 -18.07130796 17.15414169 -21 17 C-21.99 17.33 -22.98 17.66 -24 18 C-24.66 17.01 -25.32 16.02 -26 15 C-23.35541621 13.67770811 -21.32238699 13.90322806 -18.375 13.9375 C-16.87066406 13.95103516 -16.87066406 13.95103516 -15.3359375 13.96484375 C-14.56507812 13.97644531 -13.79421875 13.98804688 -13 14 C-13.04640625 13.39671875 -13.0928125 12.7934375 -13.140625 12.171875 C-13.43813387 5.5841785 -13.43813387 5.5841785 -11.125 2.5 C-7.27711542 -0.21615382 -4.72521097 -0.32587662 0 0 Z " fill="#131D31" transform="translate(87,225)"/>
<path d="M0 0 C0 9.9 0 19.8 0 30 C-0.33 30 -0.66 30 -1 30 C-1.33 25.05 -1.66 20.1 -2 15 C-2.66 15.66 -3.32 16.32 -4 17 C-4.99 16.67 -5.98 16.34 -7 16 C-6.67 13.36 -6.34 10.72 -6 8 C-5.01 8 -4.02 8 -3 8 C-3.33 6.02 -3.66 4.04 -4 2 C-1 0 -1 0 0 0 Z " fill="#03122E" transform="translate(226,230)"/>
<path d="M0 0 C2.31 0 4.62 0 7 0 C7 8.25 7 16.5 7 25 C4.69 25 2.38 25 0 25 C0 16.75 0 8.5 0 0 Z M1 1 C0.94545591 3.35448675 0.9060721 5.70767875 0.875 8.0625 C0.85179687 9.37347656 0.82859375 10.68445313 0.8046875 12.03515625 C1.00582478 16.11824299 1.72834538 19.14999053 3 23 C3.99 23 4.98 23 6 23 C6 15.74 6 8.48 6 1 C4.35 1 2.7 1 1 1 Z " fill="#0E1F36" transform="translate(231,239)"/>
<path d="M0 0 C3 2 3 2 4 5 C4.08021999 6.40824893 4.10765977 7.81997231 4.09765625 9.23046875 C4.09443359 10.03291016 4.09121094 10.83535156 4.08789062 11.66210938 C4.07532227 12.91217773 4.07532227 12.91217773 4.0625 14.1875 C4.05798828 15.03248047 4.05347656 15.87746094 4.04882812 16.74804688 C4.03705403 18.83206155 4.0191189 20.91603977 4 23 C1.69 23 -0.62 23 -3 23 C-3 17.39 -3 11.78 -3 6 C-2.67 6 -2.34 6 -2 6 C-2 10.95 -2 15.9 -2 21 C-0.68 21 0.64 21 2 21 C1.835 20.21625 1.67 19.4325 1.5 18.625 C0.97329918 14.80641907 0.98486157 11.19209739 1.03125 7.34765625 C0.99730831 4.7977866 0.65717278 2.46439794 0 0 Z " fill="#0E1F38" transform="translate(359,241)"/>
<path d="M0 0 C0.66 0 1.32 0 2 0 C2.32470459 4.13998349 2.4304413 6.33999001 0.125 9.875 C-2.79574296 12.79574296 -4.61964417 13.16196442 -8.625 13.5625 C-9.44226563 13.64628906 -10.25953125 13.73007813 -11.1015625 13.81640625 C-11.72804688 13.87699219 -12.35453125 13.93757812 -13 14 C-13.33 15.65 -13.66 17.3 -14 19 C-14.66 18.67 -15.32 18.34 -16 18 C-16 16.02 -16 14.04 -16 12 C-14.22978678 11.663389 -12.45880326 11.33082707 -10.6875 11 C-9.20830078 10.7215625 -9.20830078 10.7215625 -7.69921875 10.4375 C-5 10 -5 10 -2 10 C-1.34 7.69 -0.68 5.38 0 3 C-0.66 3 -1.32 3 -2 3 C-1 1 -1 1 0 0 Z " fill="#17273A" transform="translate(80,234)"/>
<path d="M0 0 C0.53625 0.391875 1.0725 0.78375 1.625 1.1875 C1.625 2.5075 1.625 3.8275 1.625 5.1875 C-3.12793856 9.77069076 -8.15288569 9.29120191 -14.375 9.1875 C-14.375 8.8575 -14.375 8.5275 -14.375 8.1875 C-11.075 7.5275 -7.775 6.8675 -4.375 6.1875 C-5.33365509 3.85674071 -5.33365509 3.85674071 -8.375 2.1875 C-2.95961538 -1.0125 -2.95961538 -1.0125 0 0 Z " fill="#0E2039" transform="translate(270.375,255.8125)"/>
<path d="M0 0 C2.6875 0.875 2.6875 0.875 5 2 C4.67 3.98 4.34 5.96 4 8 C2.00045254 8.04254356 -0.00041636 8.04080783 -2 8 C-3 7 -3 7 -3.25 4.5625 C-3.1675 3.716875 -3.085 2.87125 -3 2 C-2.01 1.34 -1.02 0.68 0 0 Z " fill="#0F1F35" transform="translate(234,227)"/>
<path d="M0 0 C1.98 0 3.96 0 6 0 C6.33 0.99 6.66 1.98 7 3 C5.35 3 3.7 3 2 3 C2 12.9 2 22.8 2 33 C1.34 33 0.68 33 0 33 C0 22.11 0 11.22 0 0 Z " fill="#122136" transform="translate(129,231)"/>
<path d="M0 0 C0.66 0 1.32 0 2 0 C2 1.98 2 3.96 2 6 C2.75925781 5.96519531 3.51851563 5.93039063 4.30078125 5.89453125 C5.79158203 5.85392578 5.79158203 5.85392578 7.3125 5.8125 C8.29863281 5.77769531 9.28476563 5.74289063 10.30078125 5.70703125 C13 6 13 6 14.85546875 7.51171875 C15.23316406 8.00285156 15.61085938 8.49398437 16 9 C13.89646505 9.0810206 11.79204048 9.13919907 9.6875 9.1875 C7.92986328 9.23970703 7.92986328 9.23970703 6.13671875 9.29296875 C3 9 3 9 1.09375 7.6875 C-0.54401207 5.1606671 -0.1953866 2.93079906 0 0 Z " fill="#17243A" transform="translate(91,233)"/>
<path d="M0 0 C0.33 1.32 0.66 2.64 1 4 C-2.57227299 6.44955862 -4.69506885 7.22657532 -9 7 C-9.99 7.33 -10.98 7.66 -12 8 C-12.66 7.01 -13.32 6.02 -14 5 C-11.35541621 3.67770811 -9.32238699 3.90322806 -6.375 3.9375 C-4.87066406 3.95103516 -4.87066406 3.95103516 -3.3359375 3.96484375 C-2.56507812 3.97644531 -1.79421875 3.98804688 -1 4 C-0.67 2.68 -0.34 1.36 0 0 Z " fill="#17283E" transform="translate(75,235)"/>
<path d="M0 0 C8.12715629 0.1910229 8.12715629 0.1910229 11.5625 3.375 C13 6 13 6 13 9 C12.34 9 11.68 9 11 9 C10.34 7.02 9.68 5.04 9 3 C5.7 2.67 2.4 2.34 -1 2 C-0.67 1.34 -0.34 0.68 0 0 Z " fill="#202A3C" transform="translate(69,253)"/>
<path d="M0 0 C0.66 0 1.32 0 2 0 C1.98259766 0.95712891 1.98259766 0.95712891 1.96484375 1.93359375 C1.95582031 2.75988281 1.94679687 3.58617187 1.9375 4.4375 C1.92589844 5.26121094 1.91429687 6.08492187 1.90234375 6.93359375 C1.76732652 8.99163938 1.76732652 8.99163938 3 10 C3.04063832 11.66617115 3.042721 13.33388095 3 15 C0.0177137 12.0177137 -1.28966787 9.99077962 -1.3125 5.8125 C-1 2 -1 2 0 0 Z " fill="#182439" transform="translate(57,244)"/>
<path d="M0 0 C0.33 0 0.66 0 1 0 C1.66 2.97 2.32 5.94 3 9 C3 7.68 3 6.36 3 5 C4.32 5.66 5.64 6.32 7 7 C6.67 7.99 6.34 8.98 6 10 C6.66 10.33 7.32 10.66 8 11 C7.01 11.33 6.02 11.66 5 12 C5 11.34 5 10.68 5 10 C4.01 10 3.02 10 2 10 C-0.4294516 6.3558226 -0.16179575 4.28758728 0 0 Z " fill="#041531" transform="translate(87,234)"/>
<path d="M0 0 C0.66 0.33 1.32 0.66 2 1 C1.58427734 1.77923828 1.58427734 1.77923828 1.16015625 2.57421875 C-0.80733267 6.36216005 -2.46337389 9.70699113 -3 14 C-3.33 14 -3.66 14 -4 14 C-4.49940808 7.88225104 -3.24900602 4.97504047 0 0 Z " fill="#112139" transform="translate(174,241)"/>
<path d="M0 0 C2 0.9375 2 0.9375 4 3 C4.36475845 6.02534949 4.22893297 8.96663814 4 12 C3.34 12 2.68 12 2 12 C1.855625 10.7625 1.71125 9.525 1.5625 8.25 C1.21311498 5.43495501 0.79620634 2.7298503 0 0 Z " fill="#162439" transform="translate(107,242)"/>
<path d="M0 0 C1.23556641 0.01740234 1.23556641 0.01740234 2.49609375 0.03515625 C3.32238281 0.04417969 4.14867188 0.05320313 5 0.0625 C5.63808594 0.07410156 6.27617188 0.08570313 6.93359375 0.09765625 C6.29421875 0.38640625 5.65484375 0.67515625 4.99609375 0.97265625 C2.78153296 1.92589076 2.78153296 1.92589076 1.93359375 4.09765625 C0.94359375 4.09765625 -0.04640625 4.09765625 -1.06640625 4.09765625 C-1.06640625 3.43765625 -1.06640625 2.77765625 -1.06640625 2.09765625 C-1.72640625 1.76765625 -2.38640625 1.43765625 -3.06640625 1.09765625 C-2.06640625 0.09765625 -2.06640625 0.09765625 0 0 Z " fill="#041A38" transform="translate(97.06640625,240.90234375)"/>
<path d="M0 0 C1.32 0 2.64 0 4 0 C4 1.65 4 3.3 4 5 C2.68 5 1.36 5 0 5 C0 3.35 0 1.7 0 0 Z " fill="#112039" transform="translate(420,239)"/>
<path d="M0 0 C0.99 0 1.98 0 3 0 C3 1.98 3 3.96 3 6 C0 5 0 5 -2 2 C-1.34 1.34 -0.68 0.68 0 0 Z " fill="#0A1D42" transform="translate(234,229)"/>
<path d="M0 0 C-0.99 1.32 -1.98 2.64 -3 4 C-5.31 3.01 -7.62 2.02 -10 1 C-10 0.67 -10 0.34 -10 0 C-2.25 -1.125 -2.25 -1.125 0 0 Z " fill="#1B2944" transform="translate(102,253)"/>
<path d="M0 0 C0.99 0 1.98 0 3 0 C3.66 2.31 4.32 4.62 5 7 C4.01 6.67 3.02 6.34 2 6 C0.8125 2.9375 0.8125 2.9375 0 0 Z " fill="#17223A" transform="translate(74,267)"/>
<path d="M0 0 C3 1 3 1 3 1 Z " fill="#00001C" transform="translate(94,262)"/>
<path d="" fill="#00001C" transform="translate(0,0)"/>
<path d="" fill="#000000" transform="translate(0,0)"/>
<path d="" fill="#000000" transform="translate(0,0)"/>
<path d="" fill="#000000" transform="translate(0,0)"/>
<path d="" fill="#000000" transform="translate(0,0)"/>
<path d="" fill="#000000" transform="translate(0,0)"/>
</svg>
